<svg xmlns="http://www.w3.org/2000/svg" viewBox="0 0 475.28 225.12"><defs><style>.cls-1{opacity:0.5;}.cls-2,.cls-3{fill:none;stroke:#8cc889;stroke-miterlimit:10;}.cls-3{stroke-width:2px;}</style></defs><g id="Layer_2" data-name="Layer 2"><g id="Layer_1-2" data-name="Layer 1"><g class="cls-1"><path class="cls-2" d="M140.6,12.11c-.39-.82-.95-1.38,1.36-1.63S168.46,8.67,184.42,9s52.9,2.24,61.36,4.35c0,0,1.21.06,4.5,1.85s21.43,13.34,30.8,21.63S291.6,47,294.3,48.48s7.62,2.19,7.62,2.19-2.83,1.28-25.15,2.14-52.14,2.5-62.18,2.75-42.94.11-48.68,0S154.55,54.32,153.05,51s-8.29-26.07-9.48-29.87S140.6,12.11,140.6,12.11Z"/><ellipse class="cls-2" cx="78.87" cy="110.06" rx="4.07" ry="19.6" transform="translate(-9.75 7.68) rotate(-5.25)"/><path class="cls-2" d="M165.1,55.54s-6.17,1.91-6.27,2.62,0,8.06,1.48,10.55a7.67,7.67,0,0,0,4.79,3.52c1.27.46,27.2,8.33,41.47,11.72s49.88,7.21,62.32,8.57,39.89.51,61.29-1.74,42.92-6,47.71-9.07,1-5.76,1-5.76"/><path class="cls-2" d="M225.75,186.7c-.64-.89-1.2-1.45-.28-1.32S239.32,187,246.8,187s26.77.82,27.66.75,2.07-.2,1.25.54-9.17,7-14.67,7.38-25.08.23-27.25-.41a8.84,8.84,0,0,1-4.46-3.64C228.35,190.34,225.75,186.7,225.75,186.7Z"/><path class="cls-2" d="M191.53,80s6.37,13.77,8.31,15.78,9.24,3.8,14.48,5,61.12,13.36,70.5,16.72S301.54,123,302,131.25s-.17,27.18-2.76,31-10.39,10-15.9,10-34.4-.46-34.4-.46l-26.4-1.84s-3.31-3-3.67-3.92,0-1.22.53-1.12,15.42.85,19.84,1.05,27.79.24,27.79.24a13.17,13.17,0,0,0,5.57-1.7c2.55-1.56,8-4.62,8.74-6.86s2.15-10.67,1.65-19,.28-10-2.26-12.64-12.37-6.52-18-8.22-59.89-17.21-60-17.23-3-1.19-4-2.63.8-1.28.8-1.28a14.63,14.63,0,0,1-3.07-4.1c-1.61-2.91-6.08-12.81-6.08-12.81Z"/><path class="cls-2" d="M345.06,94.83l3-.38s12.3,10.84,16.27,16.28c0,0,0,3,0,3.06s-16.24,3.53-16.24,3.53-3.12-2-3.06-2.55S345.06,94.83,345.06,94.83Z"/><path class="cls-2" d="M100.69,14.67s2.16-3.8,3.89-4.86c0,0,.58-.17.82,0,0,0,1.89-2.38,10.45-5.6s18-4.18,20.76-3.5,5,2.58,7.71,7.34c0,0,.7,1.22-.41,1.22h-5s-5.37-3.19-6.27-3.67A12.79,12.79,0,0,0,128,5.09a71.06,71.06,0,0,0-17.75,4.83A87.62,87.62,0,0,0,100.69,14.67Z"/><path class="cls-2" d="M141.17,3.91c.1,0,13-.56,20.54-.43s32-.56,51.91,2.54c0,0,11.82-1.73,16.82-.91s15.44,5.09,16.77,7.59c0,0,15.83,6.29,36.15,23.89A12.11,12.11,0,0,1,291,37.91c3.7,2.11,4.28,5.75,3.4,7.44a27,27,0,0,0,10.94,4.12c7,1.15,16.92,2.58,34,6.07s24.06,5,27.58,7.31S374,69.22,377.38,74s8.46,12.85,8.46,12.85,4.94,4.38,5.48,4.84,2.88,6,3.33,7.72,2.57,4.32,2.94,6.09-.13,19.3,0,20.25-.68,10.91-.61,11.11,3.23,3.26,3.26,9.92-1.49,7.51-1.49,7.51.07,1.53,0,1.63a5.92,5.92,0,0,1,1.35,4.32,36,36,0,0,1-1,6.68c-.53,1.45-3.61,5.12-8.05,6.55s-6.57,1.27-6.83,1.22l0,1.15-11.9,5.7a6.36,6.36,0,0,1-1.07,0c-.18,0-10,3.88-10,3.88s-1.5-.16-1.53,0,.08,1.09.08,1.09L342,192.67h-1.58L327,196.54l-.15.92L307,202.6h-1.53l-6,1.38s-1.22,1.68-1.94,2.6-16.2,6.52-26.85,6.73-51.64-3.06-55.51-4.28-15-6.37-15-6.37l-2.85-3.42a45.84,45.84,0,0,0-1-8.1,24.33,24.33,0,0,0-2.7-6.68c-.81-1.73-8.56-28.75-10-34.76s-12-38.92-32-39.64c0,0-14.3-2.69-10.54,29a54.39,54.39,0,0,0-7.1,16.57S119.79,143.75,116.66,140a65.69,65.69,0,0,0-6.11-6.39s-6.8-4.89-10.06-6.35-10.6-5.68-11.35-6.77a3.46,3.46,0,0,1-.75-1.73,6.51,6.51,0,0,0-.46-5.47c-1.58-3.11-3.61-9.11-5.86-18.55s-6.66-20.39-9.85-18.15S69.77,93,72.7,97.14"/><line class="cls-2" y1="112.52" x2="72.81" y2="112.52"/><line class="cls-2" x1="398.75" y1="112.52" x2="475.27" y2="110.86"/><path class="cls-2" d="M138.24,37.22s1.61,7.34,2,10.29.24,3.79-.37,7.32-1,7.17-1.26,7.89-.34,1.12-.81,1-4.56-1.63-4.56-1.63a2.06,2.06,0,0,0-.37-1.29c-.41-.44-3.43-.78-6.86-.82a16.32,16.32,0,0,0-4.86.34c-2,.34-13.15,1.16-18.55-2.17s-4.9-7-4.69-9.55,1.9-7.95,9.68-9.1S123.9,37.71,126,38.9a8.86,8.86,0,0,1,4.32,4.45,16.72,16.72,0,0,1,1.94,8.83l2.24.11s1.56-9.93,2.34-12A14.72,14.72,0,0,1,138.24,37.22Z"/><path class="cls-2" d="M101.1,14.43s-5.23,2.93-7.27,5.3-4.72,7.09-7.93,13.92-2.76,7.57-6,11.47-2.5,2.8-2.5,2.8a2.76,2.76,0,0,0-1.71.87A9.78,9.78,0,0,0,74,54.32c0,2.85-.18,4-.23,6.32a22.41,22.41,0,0,1-.36,5,23.46,23.46,0,0,0-1.86,8.23S70,76.48,70.14,82.32"/><path class="cls-2" d="M181.09,141.87c-3.35-1.74-20.93-4.71-31.33,8.34-12.23,15.34-7.55,47.6,17.53,59.73,0,0,19.62,10.4,33.76-6.88"/><path class="cls-2" d="M194.4,185.93l4.42,1.11a28.7,28.7,0,0,0,3.94,3.77A51.6,51.6,0,0,0,217.51,197c5.54,1.23,3.87,2.14,22.49,2.75s26.32,1,32.08,0,9.89-4.62,13.81-7.73,5.25-5.21,12.13-6.12a332.58,332.58,0,0,0,59.48-14.31s33-10.33,41.25-17.37"/><path class="cls-2" d="M301.58,128.79a57.81,57.81,0,0,0,12.16,0c7.74-.67,37.17-4.47,46.48-6.92s29.29-6.18,32.75-11a88.09,88.09,0,0,1-.13,13.87c-.68,7.47-1,14,1.29,16.68,0,0-5.91-2.14-6-3.23l-2.51.31s-1,3.82-6,5.71-14.83,5.35-14.83,5.35-29.79,9.7-49.08,12.79c0,0-11.4,2.48-13.82,1.63a10.15,10.15,0,0,1-2.93-1.33"/><path class="cls-2" d="M268,93.74s18.68,19.64,17.66,19.77-50.08-11.21-58.78-13-9.58-2.11-10.81-3.33S209,86.94,209,86.94l-6.25-1.15-6.39-2.45v-.76s11.08,4,36.16,6.88S268,93.74,268,93.74Z"/><path class="cls-2" d="M139,142.46V139.1s-1.22-16.28-1.15-23,.3-23.82.3-23.82a5.84,5.84,0,0,1-.71-.78c-.07-.17-.27-2.82-.27-2.82A67.33,67.33,0,0,1,138,75.36c1.16-6.09,3.23-9,3.6-11.9s2-16.81.82-21.5-4.55-24.4-7.41-28.14-4.14-7-21.13-3c0,0-12.1,4.05-13.83,5.91s-1.6,2.79-1.6,2.79S96,20.65,93.34,24.42s-6,10.94-7.29,13.46a28,28,0,0,0-2.35,5.58c0,.53.44.79,1.79,1.3s1.68.38,3.87,1.1,8.55,2.72,8.55,2.72"/><path class="cls-2" d="M78.16,82.73s-3.7.65-4.65,7-.78,15-.37,20.55,2.1,18,5.37,23.29c0,0,2.4,3.66,5.19,3.62s10.45-1,10.45-1,5.2-.25,5.54-9.29"/><path class="cls-2" d="M237,165.84s1.93-.26,4.5-2.68,4.54-3.06,5.15-7a210,210,0,0,0,1.1-25.36c-.36-5.35-.65-5.6-1.54-6.86a9.78,9.78,0,0,0-1.67-1.88l-22.12-1.18s-4.49.82-5.2,3.81S216,153.88,217,162.14c0,0,.49,2.67,1.86,3.18"/><path class="cls-2" d="M282.63,108.83a97.54,97.54,0,0,0,20.23,1.42c10.55-.46,30.74-2.6,30.74-2.6s11.49-1.68,11.49-1.53,0,2.27,0,2.27-15.49,2.32-25.73,3.14-24,1.35-28.72.71-6.34-.78-6.44-.9l-2.3-2.65Z"/><path class="cls-3" d="M358,103.65c.11,0,2.78,0,2.78,0s8.8-1.65,13.76-3.08,10.25-3.06,11.39-4.51a7.65,7.65,0,0,0,1.43-2.55l.23.74s-.76,3-1.38,3.52-6,3-11.87,4.61-12.13,3-12.13,3l-2.52.07Z"/><path class="cls-2" d="M106.49,73.68c-.31.26-1.86-.28-3.32-1s-4.4-2.42-4.4-3.74.73-1.89,1.3-1.86a16.14,16.14,0,0,1,3,1.35l-1.07.15,2.55,1.84.89-.26s1.33.94,1.43,1.66A5.14,5.14,0,0,1,106.49,73.68Z"/><path class="cls-2" d="M81.19,59.12a2.68,2.68,0,0,1-.2-2.37,1.33,1.33,0,0,1,1.59-.3c.53.32.92.52.92.52l-.53.29,1.35,1,.23-.19s.94.46,1.07,1-.3,2-.66,2A13.67,13.67,0,0,1,81.19,59.12Z"/><path class="cls-2" d="M216.4,209.29a44.77,44.77,0,0,1-22.5,13.93c-25.75,6.64-52.55-10.91-59.85-39.21s7.64-56.63,33.39-63.28c.61-.16,1.22-.3,1.84-.43"/><line class="cls-2" x1="138.75" y1="62.15" x2="141.6" y2="63.46"/><line class="cls-2" x1="138.08" y1="63.73" x2="140.93" y2="65.04"/><path class="cls-2" d="M140.77,34.13a21.19,21.19,0,0,0-2.53,3.09"/></g></g></g></svg>