<svg id="erfkQtms0RH1" xmlns="http://www.w3.org/2000/svg" xmlns:xlink="http://www.w3.org/1999/xlink" viewBox="0 0 640 480" shape-rendering="geometricPrecision" text-rendering="geometricPrecision"><path id="erfkQtms0RH2" d="M93.31613,223.5871C93.31613,265.25788,136.10058,281.82006,169.49677,291.09678C226.51055,306.93394,369.35681,314.72805,422.8129,288.00001C437.6206,280.59616,501.67873,224.07057,487.84516,205.62582C487.37417,204.99783,441.28881,208.10324,434.58064,208.10324C433.13548,208.10324,431.50845,207.40141,430.24516,208.10324C425.85874,210.54014,424.5194,224.32123,412.90323,229.1613C373.64489,245.51894,319.4274,233.1316,277.88387,236.59356C241.9188,239.59065,193.30133,241.34788,158.34839,231.63872C144.50602,227.79362,144.93201,215.06912,134.19355,209.34195C123.69468,203.74255,99.21203,200.69052,87.74194,203.1484C83.08823,204.14562,85.09392,210.76053,84.64517,213.67743C81.35573,235.05881,86.19072,238.13911,100.7484,252.69679" transform="matrix(1 0 0 1 0.000001 0)" fill="none" stroke="rgb(63,87,135)" stroke-width="3"/></svg>