<?xml version="1.0"?>
<svg xmlns:rdf="http://www.w3.org/1999/02/22-rdf-syntax-ns#" xmlns="http://www.w3.org/2000/svg" xmlns:cc="http://creativecommons.org/ns#" xmlns:dc="http://purl.org/dc/elements/1.1/" xmlns:svg="http://www.w3.org/2000/svg" id="svg3121" viewBox="0 0 1052.4 744.09" version="1.1">
  <g id="layer2">
    <path id="path3140" fill-rule="evenodd" d="m415.45 485.68c-0.0106 0.004-0.0242 0.00055-0.0409-0.0106-0.0161-0.0108-0.0349-0.0288-0.0564-0.0539-0.0427-0.05-0.0959-0.12837-0.15873-0.23526-0.12394-0.2111-0.28547-0.53408-0.47603-0.96923-0.37064-0.84633-0.8539-2.1212-1.3766-3.8291-0.99017-3.2355-2.1455-8.0492-2.775-14.408-0.58333-5.9007-0.69981-13.132 0.37374-21.475 1.0736-8.3435 3.3503-17.815 7.5063-27.78 1.9034-4.5398 4.7144-8.9154 8.3877-12.829 3.6733-3.9138 8.2108-7.3667 13.434-9.9633 4.9215-2.4407 10.362-4.1809 16.144-5.1375 5.7815-0.95662 11.904-1.1293 18.094-0.46716 0.00001 0 0.00003 0 0.00004 0.00001 6.4403 0.68493 12.963 2.2412 19.383 4.6635 6.4202 2.4223 12.738 5.711 18.715 9.806 6.6014 4.5254 12.786 9.9946 18.421 16.278 5.6352 6.2837 10.721 13.382 15.12 21.081 4.7132 8.2599 8.4769 17.25 11.388 26.763 2.911 9.5127 4.9687 19.548 6.3506 29.816 1.2818 9.4554 2.0359 19.142 2.4431 29.016 0.40716 9.8747 0.46714 19.938 0.4195 30.138-0.0759-0.30109-0.0103-0.33055 0.0363-0.14897 0 0 0 0.00001 0.00001 0.00001 0.14743 0.27755 0.53421 0.61128 1.0387 1.0606 0.00001 0.00001 0.00002 0.00002 0.00003 0.00004 1.5273 1.2973 3.556 2.303 5.7814 3.3733 6.6008 3.1012 13.839 5.3162 21.323 7.4838 8.7797 2.5294 17.812 4.7484 27.037 6.8281 8.1901 1.8457 16.512 3.5697 24.962 5.1519 13.094 2.4486 26.744 3.2869 40.447 2.1117 19.857-1.6995 40.196-2.9804 60.873-4.6502s41.693-3.7287 62.875-7.2068c19.678-3.2306 39.494-7.665 58.805-14.433 18.421-6.4573 36.408-15.077 52.743-26.53 0.00001 0 0.00002-0.00001 0.00003-0.00001 1.3097-0.63705 2.111-2.7651 2.9788-5.1836 0-0.00002 0.00001-0.00004 0.00002-0.00006 0.78816-2.6569 1.1789-5.8538 2.037-9.391 0.73281-2.5816 0.19193-6.4845 1.0906-11.334 0.78521-4.1068 1.8877-8.3961 3.7893-12.607 1.6205-3.4474 3.6647-6.3456 5.5926-8.943 0.00002-0.00003 0.00004-0.00005 0.00005-0.00007 1.8894-2.6183 3.678-4.9806 4.8354-7.3645 0.35272-0.3706 0.34579-1.7437 0.82363-3.8184 0.0854-2.0348 1.3158-4.7762 4.302-7.2914 2.4743-1.3833 3.9999-4.7643 4.6399-8.245 0.54581-3.6912 0.0935-7.5983-1.3414-11.019 0.10249 0.0576-0.0731-0.0452-0.31687-0.27578 0-0.00001-0.00001-0.00001-0.00002-0.00002-0.37603-0.30667-1.0908-0.59235-2.0326-1.0117-0.00003-0.00001-0.00005-0.00002-0.00007-0.00003-1.8858-0.62716-4.7065-1.7172-7.5982-4.3528-3.5022-3.3954-6.9144-8.0023-8.2182-14.054-0.55464-3.6205-0.0954-6.9868 0.83921-9.858 0.00001-0.00004 0.00002-0.00007 0.00003-0.0001 0.92949-3.0289 2.1241-5.702 3.1767-8.1525 1.0004-2.4209 1.9247-4.5761 2.2814-6.563 0-0.00002 0.00001-0.00004 0.00001-0.00006 0.26879-1.6986 0.31532-3.3034-0.242-4.3481-2.1107-5.2048-6.5237-9.6661-11.485-13.723-6.4861-5.1891-14.037-9.3053-21.93-13.092-9.6029-4.5847-19.667-8.4706-29.944-12.108-11.586-4.0976-23.41-7.8185-35.367-11.434-0.00003-0.00001-0.00006-0.00002-0.00009-0.00003-25.338-7.6585-51.229-14.769-77.165-22.915-5.3051-1.6684-10.626-3.3715-15.948-5.1404-18.529-6.1595-36.825-13.051-54.213-21.89-12.592-8.5308-24.13-18.186-35.19-28.024-11.434-10.19-22.398-20.611-33.51-30.577-11.202-10.039-22.543-19.652-34.536-28.025-11.948-8.3352-24.555-15.467-37.824-20.376-27.759-10.314-56.424-16.923-84.858-21.904-33.454-5.8512-66.629-9.2453-99.091-11.263-35.713-2.2176-70.547-2.8303-104.25-2.1028-33.704 0.72745-66.277 2.7946-97.512 5.9169 0.0201-0.066-0.28222 0.11513-0.91983 0.34162-0.83072 0.36145-1.6975 0.85393-2.6266 1.4053-2.7272 1.6298-5.3616 3.5556-8.0138 5.5709-7.8455 5.9751-15.163 12.511-22.196 19.212-8.5244 8.1301-16.513 16.509-23.796 25.192-6.8796 8.2256-13.193 16.572-17.854 25.5-4.7702 8.9489-6.4054 19.365-7.5269 29.662-0.5651 5.4627-0.95754 10.971-1.5146 16.459-0.55707 5.4886-1.2787 10.958-2.458 16.35-0.44494 2.5215-0.44735 6.432-2.8867 10.432-0.000023 0.00003-0.000046 0.00006-0.00007 0.00008-1.7856 2.0948-3.6751 3.0088-4.9786 3.3849-1.2014 0.69483-2.0639 0.82331-1.8182 0.95213-1.1972 1.8638-1.458 4.4938-1.5029 7.2468 0.01056 2.9203 0.46591 6.0338 0.67719 9.356 0.20663 3.2926 0.82055 6.5382 1.7812 9.6499 0.89323 2.9089 2.092 5.8415 3.1735 8.9277 1.3678 3.8963 2.4435 7.8676 3.1571 11.878 1.0767 6.1042 1.4127 12.138 1.4229 17.987-0.23537-0.909-0.51251-1.3409-1.1248-1.5566-0.09167 0.0677 0.2028-0.0392 0.78013-0.0749 1.294-0.3398 2.4356-0.66264 2.9337-1.2665 0.40531-0.19825 0.54927-1.1475 0.87303-2.3292 0.32615-1.7189 0.34344-3.5992 0.33107-5.573-0.05935-5.4585-0.62709-10.921-0.92342-16.388-0.34814-6.2072-0.46029-12.428 0.39291-18.49 0.72826-5.6106 2.6094-11.338 6.517-15.675 4.2622-4.6562 9.6706-8.3162 15.707-9.6774 5.4441-1.15 10.9-0.24287 15.519 1.8501 5.344 2.4258 9.6543 6.0923 13.138 10.001 4.1914 4.6814 7.3246 9.7854 9.6695 14.838 1.4791 3.1902 2.6561 6.3411 3.6656 9.3941s1.851 6.0085 2.6171 8.8278c2.1384 7.8508 3.6137 14.789 4.7727 20.686 2.6798 15.732 3.9188 24.04 3.5669 24.123h-0.00001c-0.001 0.00026-0.001 0.00025-0.001 0.00025s0 0.00001-0.001 0.00021c-0.3597 0.0423-2.2925-8.1417-5.6303-23.698-1.4026-5.8125-3.1112-12.64-5.4589-20.315-0.84907-2.7709-1.7621-5.6546-2.8252-8.6001s-2.2759-5.953-3.7651-8.9488c-2.3524-4.737-5.416-9.4766-9.4142-13.737-3.3391-3.5417-7.3022-6.8025-11.996-8.7808-3.9744-1.6776-8.5735-2.3766-12.886-1.3286-4.8794 1.0981-9.3931 4.394-13.189 8.556-3.0023 3.2244-4.3494 8.074-5.0649 13.154-0.7128 5.5346-0.49288 11.4-0.08195 17.498 0.3678 5.2983 1.0165 10.813 1.1692 16.609 0.06394 2.0756 0.04904 4.3017-0.32843 6.6324-0.15453 1.571-0.77663 3.506-2.3469 5.3223-1.7861 1.7254-3.9071 2.6105-5.8489 2.9135-0.84301 0.24642-2.0494 0.32158-3.5352-0.0278-1.6416-0.52367-2.7412-1.8979-2.9862-3.8851-0.09247-5.6398-0.47272-11.34-1.5467-16.96-0.69141-3.6487-1.7291-7.2913-3.041-10.898-1.0503-2.8831-2.3057-5.8674-3.3532-9.1113-1.1414-3.5525-1.8884-7.2755-2.1742-11.085-0.2262-2.9866-0.7206-6.2026-0.79681-9.7082-0.12741-3.3587 0.37895-7.0932 2.2784-10.605 1.6388-2.2896 3.5546-3.372 4.9436-3.7645 1.3048-0.71877 2.2484-0.89475 2.1031-1.1274-0.000001-0.00001-0.000003-0.00001-0.000005-0.00001 1.2219-1.1957 0.81338-4.245 1.7278-8.0264 1.0658-5.0174 1.6927-10.226 2.1769-15.588 0.48424-5.362 0.8257-10.877 1.3647-16.499 0.9615-10.616 2.7394-21.882 8.0315-32.341 4.9817-9.6695 11.527-18.53 18.527-26.984 7.4242-8.9905 15.546-17.643 24.19-26.003 7.1079-6.8803 14.598-13.657 22.729-19.944 2.7259-2.1125 5.5918-4.2241 8.7166-6.1328 1.0543-0.64804 2.2124-1.3018 3.5035-1.8901 0.74912-0.39425 1.8804-0.80311 3.4146-1.0254 31.421-3.3465 64.204-5.6176 98.141-6.5235 33.937-0.90591 69.027-0.44622 105.01 1.6484 32.726 1.9025 66.256 5.2228 100.17 11.05 28.804 4.9414 58.046 11.629 86.615 22.154 14.245 5.2698 27.606 12.763 40.069 21.459 12.499 8.7143 24.171 18.561 35.515 28.719 11.266 10.08 22.234 20.485 33.518 30.522 10.752 9.5816 21.773 18.855 33.632 26.875 16.578 8.4382 34.272 15.046 52.42 21.044 5.2116 1.7227 10.442 3.3899 15.675 5.0326 25.703 8.0791 51.561 15.192 77.054 22.92 0.00002 0.00001 0.00005 0.00002 0.00008 0.00003 12.027 3.645 23.995 7.4259 35.795 11.612 10.454 3.7054 20.837 7.7384 30.891 12.546 8.2409 3.9219 16.419 8.4484 23.803 14.313 5.7643 4.4911 11.142 10.246 14.373 17.576 1.3693 3.4763 1.5144 6.9994 0.82403 10.108-0.00001 0.00004-0.00002 0.00007-0.00003 0.00011-0.68398 3.2294-1.8108 6.0212-2.8904 8.4805-1.0985 2.5966-2.1756 4.9294-2.8263 7.1384-0.00001 0.00002-0.00002 0.00005-0.00002 0.00007-0.55089 2.0525-0.92785 3.9098-0.58838 5.3399 0.28634 2.9308 2.8353 5.8705 5.6254 9.0188 0.27192 0.65429 2.0076 1.0093 4.3247 2.1326 0.00002 0.00001 0.00005 0.00002 0.00008 0.00003 1.1193 0.43914 2.4583 1.0732 3.9024 2.0549 0.00004 0.00002 0.00008 0.00005 0.00012 0.00008 1.463 0.97747 2.7519 2.4771 3.6575 4.4627 2.128 5.1332 2.7768 10.763 1.9437 16.186-0.74158 5.6515-3.7131 11.239-8.9414 14.863 0.26159-0.74403 0.41928-0.0699-0.11978 1.0782-0.19216 1.3406-0.47151 3.5364-1.6764 6.2701-1.7252 3.3609-3.7978 6.1704-5.6929 8.7164-0.00002 0.00002-0.00003 0.00004-0.00005 0.00006-1.8655 2.579-3.5919 4.9184-4.6444 7.2777-1.4724 3.1188-2.3578 6.6977-3.1326 10.466-0.60934 2.7628-0.11341 6.82-1.2167 11.739-0.70084 2.8309-1.138 6.1614-2.1716 9.773l-0.00003 0.00009c-0.86348 3.5383-2.8997 7.3633-6.656 10.261-0.00003 0.00003-0.00006 0.00005-0.0001 0.00008-17.223 11.963-35.996 20.895-55.107 27.491-20.012 6.9078-40.35 11.381-60.4 14.563-21.578 3.4247-42.835 5.4047-63.627 6.9739s-41.119 2.7278-60.868 4.2872c-14.506 1.1461-28.877 0.17054-42.614-2.5028-8.5374-1.6605-16.941-3.4647-25.207-5.3922-9.3046-2.1688-18.468-4.4966-27.42-7.1513-7.5533-2.2286-15.149-4.6486-22.352-8.0775-2.3955-1.1157-4.9376-2.4762-7.3036-4.4214-0.00002-0.00001-0.00004-0.00003-0.00006-0.00005-0.83098-0.66294-1.703-1.5582-2.4915-2.7388l-0.00006-0.00009c-0.66433-0.926-1.1073-2.2305-1.1719-3.8445 0.12792-10.154 0.16013-20.107-0.14506-29.821-0.3052-9.7144-0.94761-19.19-2.1099-28.399-1.2709-9.9906-3.1464-19.699-5.8228-28.854-2.6764-9.1546-6.1533-17.756-10.545-25.613-4.1271-7.393-8.8809-14.217-14.144-20.256-5.2636-6.0388-11.037-11.293-17.207-15.631-5.58-3.9255-11.477-7.1121-17.468-9.4849-5.9904-2.3727-12.074-3.932-18.08-4.6592-0.00001 0-0.00002-0.00001-0.00004-0.00001-5.7684-0.69454-11.476-0.64001-16.858 0.14034-5.382 0.78036-10.439 2.2862-15 4.4585-4.8073 2.2828-9.0372 5.3559-12.485 8.8616-3.4481 3.5056-6.1161 7.4446-7.9366 11.55-4.2549 9.5611-6.7289 18.693-8.0386 26.778-1.3097 8.0853-1.4686 15.14-1.1673 20.939 0.32431 6.2552 1.1586 11.035 1.84 14.302 0.35976 1.7244 0.67999 3.0266 0.89156 3.9153 0.10879 0.45696 0.18868 0.80362 0.23206 1.0421 0.022 0.12105 0.0346 0.21401 0.0368 0.27913 0.001 0.0328-0.00044 0.0585-0.005 0.0772-0.004 0.0193-0.0119 0.0311-0.0225 0.0352z"/>
    <path id="path3146" fill-rule="evenodd" d="m937.93 394.76c0.13055 0.29212-2.1518 1.6549-6.6695 4.0054-3.1287 1.2854-7.3399 2.7573-12.608 4.1872-5.2676 1.4299-11.6 2.7958-18.817 4.1752-10.157 1.9404-22.167 3.9324-35.857 5.7543s-29.059 3.469-45.913 4.8216-35.192 2.4075-54.789 3.2078-40.454 1.3447-62.313 1.8728c-8.2602 0.18636-16.612-0.41695-24.986-1.6374-8.3738-1.2204-16.77-3.0578-25.11-5.2874-15.914-4.2366-31.733-9.8393-47.85-15.084-22.873-7.4388-46.599-14.754-70.94-22.077-7.6239-2.2936-15.307-4.5869-23.045-6.88-19.729-5.847-39.173-11.505-58.226-16.996-61.491-17.72-118.89-33.709-169.01-47.639-56.248-15.632-103.34-28.631-136.91-38.111-17.687-4.9944-31.622-9.0086-41.171-11.9-4.8666-1.4738-8.5937-2.6558-11.098-3.5269-1.2624-0.43918-2.2139-0.79931-2.8437-1.0779-0.63272-0.27974-0.94084-0.47746-0.91351-0.59023 0.00018-0.00072 0.000181-0.00072 0.000181-0.00072s-0.000001 0 0.000185-0.00071v-0.00001c0.03018-0.11204 0.39538-0.13737 1.0848-0.0786 0.68632 0.0586 1.6939 0.20084 3.012 0.42438 2.6144 0.44338 6.4503 1.2067 11.423 2.2727 9.7575 2.0915 23.893 5.3478 41.769 9.6406 33.931 8.1484 81.342 20.021 137.84 34.829 50.349 13.195 107.93 28.694 169.55 46.238 19.093 5.4363 38.575 11.072 58.34 16.929 7.7515 2.2973 15.449 4.5999 23.086 6.9078 24.379 7.3673 48.16 14.785 71.095 22.378 16.271 5.3835 31.865 11.037 47.266 15.26 8.0697 2.2039 16.1 4.0442 24.031 5.2934 7.931 1.2491 15.763 1.9069 23.446 1.7975 21.866-0.28307 42.682-0.5328 62.219-0.99722s37.796-1.1423 54.577-2.0851c16.781-0.94281 32.085-2.1474 45.734-3.5016 13.65-1.3542 25.646-2.8533 35.824-4.2815 7.2087-1.0103 13.482-1.972 18.73-2.9973 5.2484-1.0253 9.4796-2.0919 12.691-2.9827 4.6895-1.7642 7.2257-2.5548 7.3563-2.2627z"/>
    <path id="path3150" fill-rule="evenodd" d="m96.48 236.03c0.60328-2.6142 125.04 23.854 280.45 59.594 0.007 0.22281 0.67472-0.15909 1.5784-0.53044 1.1202-0.63157 2.1588-1.7709 3.1506-3.1134 0.25108-0.36643 0.48747-0.73748 0.7055-1.1116 0.61596-1.0571 1.0829-2.1348 1.3215-3.199 0.15724-1.2445 0.34269-2.208 0.0461-2.4436-16.746-36.998-32.527-72.192-46.724-104.15-1.2046-3.017-4.0522-5.5355-7.22-7.6841-3.4548-2.2622-7.4269-3.8944-11.521-5.3611-6.2546-2.2201-12.678-3.6995-19.028-4.8922-7.7262-1.4456-15.299-2.3916-22.611-3.1074-8.9745-0.87801-17.528-1.398-25.585-1.7286-8.0573-0.33052-15.618-0.47113-22.617-0.53667h-0.00002c-16.695-0.15488-30.175 0.15296-39.762 0.31384-5.2409 0.088-9.3167 0.14182-12.123 0.1039-1.453-0.0196-2.5649-0.0637-3.3218-0.13864-0.38437-0.0381-0.67695-0.0841-0.87603-0.139-0.10021-0.0276-0.17669-0.0575-0.22923-0.0897-0.0299-0.0531-0.0512-0.0795-0.065-0.0925-0.0138-0.0129-0.0202-0.0128-0.0206-0.0127h-0.00001 0.00001c0.00036-0.00005 0.007-0.001 0.0178-0.0164 0.0111-0.0154 0.027-0.0453 0.0464-0.10312 0.0457-0.0415 0.11553-0.0851 0.20931-0.13072 0.18602-0.0906 0.4663-0.18923 0.83873-0.295 0.73336-0.20828 1.8248-0.44438 3.2593-0.70108 2.7705-0.49579 6.8231-1.0698 12.052-1.6601 9.5646-1.08 23.075-2.2493 39.893-2.8713h0.00002c7.047-0.26129 14.682-0.43137 22.853-0.39142 8.1708 0.04 16.878 0.28954 26.06 0.92156 7.4838 0.51471 15.307 1.2899 23.39 2.6042 6.6282 1.0728 13.498 2.5134 20.412 4.7999 4.4491 1.4567 9.0576 3.2958 13.479 6.021 4.2232 2.5318 8.2458 6.2576 10.754 11.431 14.682 31.742 30.751 66.805 47.541 103.78 1.2897 3.2636 1.3161 6.3812 0.57731 8.8911-0.52384 2.1306-1.3466 4.1128-2.3898 5.9101-0.36924 0.63614-0.76559 1.2482-1.1853 1.8349-1.5187 2.2243-3.5614 4.2967-6.1542 5.9111-2.266 1.546-5.4129 2.3174-8.9985 1.711-155.36-35.97-278.81-66.71-278.21-69.33z"/>
    <path id="path3154" fill-rule="evenodd" d="m527.6 180.58c-0.0688 1.0195-18.061 0.71126-48.584-1.0838s-73.572-5.0822-124.17-9.4041c16.347 31.73 34.481 66.588 53.42 103.28 1.3165 2.5509 2.6279 5.0934 3.9339 7.627 0.2222 1.0758 1.9808 1.9624 3.9341 2.8704 2.2642 0.85317 4.8595 1.1821 7.5518 1.2403 149.18 1.7863 266.13 5.1465 266.11 7.7513-0.0271 2.6048-117.03 3.5279-266.21 2.2063-3.5292-0.007-7.2246-0.52507-10.859-1.8165-3.5754-1.1021-7.201-3.6643-9.5388-7.9353-1.1978-2.6958-2.3993-5.4017-3.6042-8.1172-17.334-39.064-33.699-76.261-48.555-109.7 52.23 2.615 96.514 5.2195 127.62 7.5817 31.103 2.3622 49.029 4.477 48.96 5.4965z"/>
    <path id="path3158" fill-rule="evenodd" d="m935.15 427.34c0.006 0.0322 0.004 0.066-0.006 0.10144-0.0159 0.0361-0.0428 0.0743-0.0806 0.11465-0.0754 0.0804-0.19403 0.16918-0.35517 0.26598-0.32084 0.19271-0.81025 0.41737-1.462 0.67198-1.2907 0.50426-3.2188 1.1262-5.7362 1.8501-4.9204 1.4149-12.094 3.2207-21.168 5.2953-16.992 3.8851-40.65 8.739-68.679 13.584-23.945 4.1405-51.107 8.3646-80.101 11.329-0.55371 0.0567-1.1082 0.11284-1.6634 0.16853-11.489 1.1523-22.799 2.0316-33.821 2.4214-9.4316 0.34266-18.808 0.37637-27.906-0.61784-7.753-0.8506-15.325-1.8117-22.585-3.0736-7.2604-1.2618-14.209-2.8245-20.746-4.766-4.859-1.425-9.5367-3.1544-13.84-5.242-4.3036-2.0876-8.2335-4.5327-11.683-7.3132-3.55-2.9123-6.4289-6.0916-8.8385-9.2602s-4.3496-6.3276-5.97-9.3036c-2.1645-3.9604-3.8765-7.5775-5.2994-10.748-1.4228-3.1701-2.5525-5.8955-3.4329-8.1237-1.7608-4.4564-2.5224-6.9349-2.089-7.1612 0.43337-0.22632 2.0422 1.8314 4.6016 5.8859 1.2796 2.0273 2.7944 4.5528 4.567 7.4916 1.7726 2.9389 3.7991 6.2932 6.2082 9.9027 1.7868 2.6634 3.8188 5.4549 6.192 8.1769 2.3733 2.722 5.0875 5.3757 8.2824 7.6571 3.0986 2.2619 6.6557 4.215 10.607 5.8836s8.2972 3.0523 12.891 4.2547c6.2422 1.6103 12.908 2.8736 19.946 3.8837 7.0372 1.0101 14.445 1.7673 22.137 2.4762 8.4036 0.77304 17.295 0.58637 26.563 0.17504 10.753-0.48832 21.854-1.4121 33.22-2.5502 0.54929-0.055 1.0981-0.11037 1.6463-0.16606 28.701-2.9177 55.744-6.7344 79.718-10.192 28.048-4.0461 51.851-7.7174 69.077-10.168 9.1984-1.3087 16.519-2.2759 21.605-2.8002 2.6023-0.26827 4.6192-0.42064 6.0033-0.44438 0.69884-0.012 1.2362 0.009 1.606 0.0641 0.18575 0.0278 0.3292 0.0642 0.4296 0.10949 0.0503 0.0227 0.0898 0.0477 0.11841 0.0748 0.0232 0.0287 0.038 0.0591 0.0445 0.0913z"/>
    <path id="path3166" stroke="#000" stroke-width="1px" d="m916.45 404.46-3.4656 27.032-115.06 19.407-1.3862-31.191z"/>
    <path id="path3174" fill-rule="evenodd" d="m933.08 495.96c0.11421 0.92423-0.90186 1.9284-2.7083 2.9027-0.58091 0.40167-1.21 0.77436-1.688 1.105-0.47806 0.3307-0.80455 0.61601-0.6618 0.92738-0.50846 0.73555-0.96383 1.5993-1.3771 2.6038-0.41327 1.0046-0.78578 2.1506-1.1542 3.3961-0.3907 1.4105-0.69586 2.9535-0.95144 4.6189-0.14617 0.95249-0.27222 1.9119-0.39088 2.8672-0.20616 2.0839-0.5378 3.6076-0.56134 4.7645 0.0168 0.58852-0.0756 0.91843-0.0999 1.0086-0.12437-0.0691-0.35149-0.0265-0.62766-0.0674-1.1695 0.007-1.2263 0.0136-0.84882 0.22292 0.52846 0.0522 1.2259-0.17266 1.9437-0.38876 0.9035-0.27919 1.7184-0.54351 2.4087-0.66459 0.39237-0.0687 0.74109-0.0902 1.0448-0.0562 0.15816 0.0196 0.30409 0.0543 0.43763 0.10489 0.17285 0.11472 0.26857 0.17081 0.32077 0.1976 0.0511 0.0262 0.0607 0.0243 0.062 0.0236 0.00016-0.00008 0.00013-0.00005 0.00013-0.00005s0.00003-0.00003-0.00003 0.00014c-0.00046 0.001-0.00091 0.0113 0.0325 0.058 0.0341 0.0477 0.10346 0.13422 0.24172 0.28848 0.0659 0.12793 0.11272 0.27489 0.14046 0.43935 0.0556 0.30965 0.0431 0.68195-0.0402 1.1061-0.14497 0.74421-0.51034 1.6628-1.1988 2.6939-0.50433 0.78983-1.2641 1.6909-2.5802 2.5588-0.87621 0.76375-2.5006 1.221-5.089 0.61214-1.6441-0.63494-3.0546-1.7519-3.9129-3.2842-0.76976-1.396-1.219-2.7957-1.3704-3.9937-0.35368-2.3518-0.27568-4.5944-0.16436-6.424 0.0534-1.165 0.16887-2.3733 0.36409-3.6095 0.34136-2.1616 0.91064-4.2789 1.6944-6.2514 0.69059-1.805 1.6468-3.4931 2.7754-4.9446s2.4278-2.6658 3.7686-3.592c1.5834-0.98317 2.931-1.3747 4.0392-1.5121s1.9804-0.0207 2.6756 0.1499c2.1212 0.48903 3.3614 1.2144 3.4756 2.1386z"/>
    <path id="path3178" fill-rule="evenodd" d="m942.78 474.47c0.55069 0.99124 0.4203 2.2449-0.0911 3.34-0.51146 1.0951-1.4023 2.0294-2.6414 2.7421-0.0148 0.83558-0.0738 1.6726-0.19239 2.5034-0.3325 2.3297-1.0983 4.2086-2.1998 5.5401s-2.5387 2.1156-3.8858 1.8163c-1.3471-0.29936-2.3004-1.6928-2.6199-3.8804-0.31948-2.1876-0.005-5.1693 0.85481-8.2058 0.30667-1.0828 0.65859-2.0951 1.032-3.0066 2.3658-1.29 4.5941-2.0885 6.3004-2.2256 1.7064-0.13703 2.8926 0.38519 3.4432 1.3764z"/>
    <path id="path3182" fill-rule="evenodd" d="m782.67 510.51c0.0352 1.2608-8.0009 2.62-21.031 3.7176s-31.052 1.9328-51.511 2.4024c-2.5184 2.2193-5.0983 4.4559-7.7272 6.7244-2.2133 1.9099-4.4009 3.7907-6.555 5.6516h0.00001c10.446-0.84942 20.279-1.5991 29.186-2.1418 8.9068-0.54279 16.887-0.87813 23.592-0.97129 6.7044-0.0932 12.133 0.0557 15.898 0.40557 3.7652 0.34983 5.867 0.89981 5.8844 1.5396s-2.056 1.3034-5.8979 1.8602c-3.8418 0.55683-9.4524 1.0061-16.475 1.2865-7.0228 0.28037-15.458 0.39172-24.912 0.34855-9.4536-0.0432-19.926-0.24028-30.986-0.50447 2.0959-3.3432 4.2324-6.7574 6.403-10.216 2.5782-4.1076 5.121-8.1438 7.6168-12.065h0.00001c21.64-0.705 40.882-0.90952 54.592-0.55793s21.888 1.2584 21.923 2.5192z"/>
    <path id="path3186" fill-rule="evenodd" d="m769.5 535.46c-0.0555 0.16739-0.26173 0.27542-0.58865 0.37846-0.32693 0.10303-0.77206 0.22163-1.43 0.30982-0.82426 0.129-1.8874 0.26487-3.209 0.40654-2.4326 0.26246-5.6527 0.55571-9.6025 0.86928-6.8752 0.54788-15.848 1.1631-26.366 1.7848-10.239 0.26854-21.818 0.25873-34.285 0.0765-1.1862 3.518-2.4092 7.0899-3.6621 10.72-1.5839 4.5887-3.1476 9.0742-4.6747 13.464h0.00001c10.164-1.191 19.693-2.2378 28.308-3.0549 8.6152-0.81712 16.317-1.4043 22.787-1.7273 6.4693-0.32299 11.706-0.38194 15.346-0.19547 3.6405 0.18647 5.6847 0.61781 5.7302 1.2275 0.0455 0.6097-1.9173 1.3398-5.6092 2.0731-3.6918 0.73326-9.1132 1.4691-15.945 2.138-6.8323 0.66894-15.076 1.2709-24.368 1.7892-9.2925 0.5183-19.634 0.95329-30.62 1.3395h-0.00001c1.3843-6.1215 2.8227-12.475 4.3066-18.963 1.1738-5.1321 2.3364-10.173 3.4822-15.075 14.272-1.0046 27.554-1.779 38.978-2.1768 10.577 0.13328 19.672 0.50693 26.615 1.114 3.9735 0.34753 7.2792 0.77483 9.7391 1.2728 1.3317 0.26941 2.4415 0.5636 3.2701 0.87118 0.60628 0.22479 1.1285 0.47368 1.4369 0.71904 0.30834 0.24535 0.41623 0.47149 0.36073 0.63888z"/>
    <path id="path3190" fill-rule="evenodd" d="m789.6 510.51c1.1648 0.40166-2.9853 15.899-10.807 41.255 0.0812-0.45873 0.15417-0.65325 0.0982-0.66932 0.01 0.067 0.19293 0.24892 0.44989 0.58088 0.70135 0.82733 1.7684 1.5558 3.0166 2.3369 1.2674 0.75067 2.5844 1.3872 3.9341 1.7937 1.1763 0.18833 1.8228 0.53056 1.6485 0.31336 30.044-8.8689 69.712-20.007 113.34-31.725-0.69318 0.31004-0.96985 0.38336-0.8111 0.3701 0.008-0.006 0.0165-0.0121 0.0251-0.0194 0.12813-0.10736 0.31852-0.38806 0.61178-0.78703 0.86093-1.231 1.5782-2.7959 2.3594-4.5362 2.0789-4.7283 3.6791-9.7421 5.231-14.82 1.5098-4.9642 2.8711-9.9173 4.1415-14.826 0.42106-1.6274 0.83047-3.246 1.226-4.856l0.00001-0.00001c0.11129-0.45296 0.22108-0.90346 0.32882-1.3516v-0.00001c0.00009 0.00008 0.0001 0.00009 0.00011 0.0001 0.9737 0.85093 1.9461 1.702 2.9171 2.5531 0.00008 0.00007 0.00008 0.00007 0.00008 0.00006 0.008-0.0308 0.016-0.0615 0.0239-0.0923 0.002-0.008 0.004-0.0158 0.006-0.0237-18.198 4.1473-35.201 7.9523-50.511 11.249-15.311 3.2968-28.93 6.0852-40.32 8.251s-20.551 3.7091-26.903 4.5595c-6.352 0.85048-9.8946 1.0086-10.009 0.44351-0.11483-0.56508 3.2128-1.8031 9.499-3.5208 6.2863-1.7177 15.532-3.9147 27.214-6.4374s25.801-5.3708 41.791-8.4347c15.991-3.0639 33.853-6.3436 52.979-9.7727-0.004 0.0169-0.005 0.0251-0.007 0.0333-0.006 0.032-0.0128 0.064-0.0192 0.096v0.00001c0.91526 1.0941 1.8314 2.188 2.7487 3.2819l0.00003 0.00003c0.00008 0.00008 0.00008 0.00008 0.00007 0.00009-0.10565 0.47031-0.21261 0.9391-0.3203 1.4064 0 0.00001-0.00001 0.00001-0.00001 0.00002-0.38281 1.6613-0.78005 3.3268-1.1895 4.9965-1.233 5.0303-2.5818 10.137-4.1053 15.29-1.532 5.2073-3.2398 10.597-5.5643 15.967-0.82243 1.9376-1.8317 4.0399-3.2417 6.1567-0.45737 0.70759-1.0803 1.502-1.9116 2.3298-0.0562 0.0559-0.11326 0.112-0.17131 0.16819-0.59762 0.69384-1.7356 1.4051-3.4269 1.9829-43.637 11.695-83.553 21.909-114 29.27-2.7003 0.46049-4.7025-0.0125-5.9342-0.64942-1.9914-0.73857-3.7728-1.7116-5.358-2.7993-1.5552-1.0256-3.1071-2.3302-4.4228-3.9835-0.5401-0.64833-1.0626-1.5275-1.4619-2.6325 0-0.00001 0-0.00001-0.00001-0.00002-0.38695-0.96407-0.41841-2.2068-0.0147-3.601 9.4698-24.788 15.754-39.549 16.918-39.147z"/>
    <path id="path3198" fill-rule="evenodd" d="m693.26 453.68c-0.70341-0.24966 0.38531-5.4345 2.9152-14.46 0.697-3.3441 1.4361-7.2107 1.6004-11.477 0.036-1.5494 0.0447-3.1298-0.10679-4.6437-0.15144-1.5139-0.46259-2.9615-1.1224-4.211-1.0099-2.192-2.7964-4.2798-4.9249-6.4545-2.5941-2.5959-5.6894-5.0417-9.117-7.4927-4.0422-2.884-8.4637-5.6905-13.219-8.4487-4.7556-2.7582-9.8457-5.468-15.179-8.2152-11.613-5.9689-24.362-11.893-37.877-17.874-7.5209-3.3276-15.271-6.666-23.195-10.013-6.589-2.7832-13.097-5.4882-19.488-8.1232-15.593-6.4289-30.49-12.421-44.221-17.984-13.731-5.5629-26.296-10.697-37.256-15.312-5.996-2.5243-11.525-4.8906-16.498-7.1002-4.9736-2.2096-9.3925-4.2614-13.189-6.1167-4.109-2.0076-7.5057-3.8083-10.073-5.3415-2.0468-1.2202-3.6167-2.2892-4.5841-3.1281-0.96743-0.83891-1.3584-1.4182-1.216-1.636 0.14242-0.21783 0.80452-0.072 1.9736 0.30693 1.1691 0.37895 2.8613 0.9551 5.1 1.753 2.7665 0.97849 6.317 2.2293 10.603 3.7317 3.9575 1.3868 8.5188 2.9893 13.627 4.7778 5.1083 1.7885 10.764 3.7621 16.897 5.9338 11.199 3.9651 23.968 8.5561 37.881 13.715 13.912 5.1588 28.968 10.887 44.698 17.22 6.4436 2.5943 13.002 5.2883 19.639 8.0918 7.982 3.3717 15.783 6.7789 23.345 10.215 13.578 6.1676 26.422 12.446 38.099 18.88 5.3407 2.9373 10.486 5.9091 15.318 8.977 4.8315 3.0679 9.3488 6.2316 13.479 9.4956 3.5127 2.7701 6.7911 5.7038 9.5977 8.8656 2.3221 2.5702 4.3845 5.5121 5.6866 8.7756 0.80396 2.2045 1.1298 4.3344 1.2039 6.3279 0.0742 1.9935-0.10369 3.851-0.36704 5.5384-0.67702 4.8315-1.927 8.8751-3.1277 12.236-3.7695 8.7224-6.1956 13.44-6.899 13.191z"/>
    <path id="path3250" d="m866.77 419.08-3.0066 5.7908 3.0066 4.4024 3.0066-5.7541zm0 10.193-5.8665 1.3545-2.9333 5.6638 5.8666-1.3545zl5.8665-1.3545 2.9333 4.3093-5.8666 1.3545z" stroke="#fff" fill="#800000"/>
    <path id="path3017" fill-rule="evenodd" d="m414.29 414.98c-0.74686 2.657-61.011-11.956-134.52-32.618-73.507-20.662-132.56-39.588-131.81-42.245 0.74686-2.657 61.011 11.956 134.52 32.618 73.507 20.662 132.56 39.588 131.81 42.245z"/>
    <path id="path3025" fill-rule="evenodd" d="m405.66 430.84c-0.76541 2.6517-57.876-11.502-127.48-31.592-69.604-20.091-125.47-38.548-124.71-41.2 0.76541-2.6517 57.876 11.502 127.48 31.592 69.604 20.091 125.47 38.548 124.71 41.2z"/>
    <path id="path3030" fill-rule="evenodd" d="m951.39 439.16c0.21763 0.99019-11.508 4.5334-31.842 9.8096h-0.00001c-19.334 4.7806-46.519 10.724-78.839 16.226-26.432 4.5008-56.333 8.7721-88.162 11.276-3.4768 0.27347-6.9357 0.52237-10.374 0.74621-16.59 1.0803-32.74 1.5455-48.141 1.1939-15.091-0.34016-29.532-1.4779-42.873-3.7409h-0.00002c-10.711-1.8242-20.59-4.205-29.67-6.4964-12.172-3.069-22.972-6.1216-32.202-8.8644-22.925-7.0912-36.288-11.774-36.015-12.829v-0.00001l0.00066-0.002 0.00068-0.002v-0.00002c0.3142-1.0437 14.214 1.6944 37.517 7.186 9.359 2.0956 20.24 4.5511 32.408 7.0796 9.1163 1.8932 18.903 3.8972 29.295 5.358h0.00001c12.887 1.8199 26.89 2.608 41.688 2.7331 15.086 0.12297 30.948-0.47593 47.331-1.5808 3.3965-0.22914 6.8142-0.47906 10.251-0.74919 31.463-2.473 61.155-6.3516 87.544-10.187 32.236-4.687 59.514-9.4096 79.092-12.716h0.00001c20.644-3.7304 32.772-5.4298 32.99-4.4396z"/>
    <path id="path3034" fill-rule="evenodd" d="m960.16 460.63c0.008 0.0316 0.007 0.0655-0.003 0.10169-0.0163 0.0373-0.0445 0.0776-0.0846 0.12081-0.0801 0.0863-0.20753 0.18419-0.38138 0.29332-0.34661 0.21758-0.87809 0.47985-1.5877 0.78359-1.4094 0.60331-3.5229 1.3706-6.2885 2.2765-5.4438 1.7831-13.419 4.1052-23.538 6.7641-19.362 5.0881-46.588 11.449-78.973 17.395-26.361 4.8419-56.179 9.4789-87.941 12.314-3.6109 0.3223-7.203 0.61708-10.774 0.88376-16.609 1.2409-32.785 1.84-48.214 1.5825-15.105-0.24735-29.568-1.3305-42.923-3.5955h-0.00001c-10.711-1.8243-20.59-4.2052-29.669-6.4965-12.165-3.067-22.96-6.118-32.186-8.8598h-0.00001c-10.904-3.2402-19.622-6.07-25.751-8.2452-3.334-1.1831-5.9028-2.1746-7.6391-2.9427-0.8972-0.39693-1.5723-0.73433-2.0159-1.008-0.22506-0.13888-0.39056-0.26139-0.49523-0.36699-0.0527-0.0532-0.09-0.10206-0.11173-0.14659-0.00068-0.0579-0.005-0.0885-0.009-0.1047-0.004-0.016-0.008-0.0178-0.009-0.0179h-0.00001 0.00001c0.00036 0.00008 0.005 0.00069 0.0167-0.0107 0.0121-0.0115 0.032-0.0352 0.0632-0.0839 0.042-0.0263 0.0994-0.048 0.17217-0.0653 0.14454-0.0343 0.34949-0.051 0.61368-0.0505 0.52066 0.001 1.2712 0.0687 2.2422 0.1995 1.8792 0.25314 4.5836 0.74265 8.0454 1.4404 6.3649 1.2829 15.286 3.2755 26.348 5.7529h0.00001c9.3613 2.0965 20.247 4.5535 32.423 7.0843 9.116 1.8932 18.903 3.8971 29.295 5.358 0 0 0.00001 0 0.00001 0.00001 12.878 1.8189 26.882 2.551 41.68 2.5851 15.1 0.0298 30.975-0.70182 47.369-1.9659 3.525-0.2719 7.0727-0.56732 10.641-0.88558 31.384-2.7995 60.99-7.043 87.311-11.223 32.326-5.1353 59.668-10.278 79.293-13.894 10.256-1.8896 18.4-3.3706 24.044-4.2631 2.8676-0.45339 5.0889-0.7548 6.6136-0.88208 0.76761-0.0641 1.3583-0.0839 1.7659-0.0569 0.20447 0.0136 0.36276 0.039 0.47417 0.0766 0.0558 0.0188 0.0998 0.0407 0.13195 0.0656 0.0262 0.0268 0.0435 0.0561 0.0515 0.0877z"/>
    <path id="path3095" fill-rule="evenodd" d="m582.51 571.25c0.29812 0.0865 0.13188 1.749-0.46952 4.8763-0.34647 1.3354-0.85158 2.9304-1.6042 4.7323-0.75263 1.802-1.753 3.8123-3.1169 5.9323-1.1825 1.8347-2.6538 3.7425-4.4863 5.5924s-4.0268 3.6428-6.6432 5.1801c-2.6307 1.5256-5.6279 2.7509-8.9184 3.5698-3.2905 0.81897-6.8754 1.231-10.598 1.1591-6.8913-0.0974-14.452 0.11177-22.669 0.28273-7.9937 0.1682-16.581 0.33461-25.726 0.13323-7.7311-0.16516-15.934-0.55523-24.476-1.9243-6.2051-0.93318-13.013-2.4496-19.387-6.2862-3.0685-1.9203-5.7142-4.3421-7.956-6.9929-2.555-3.0029-4.714-6.294-6.5688-9.7022-4.3263-7.947-7.3612-16.681-9.6249-25.633-2.5492-10.01-4.2072-20.48-5.1148-31.196-0.92383-10.854-1.0877-22.025-0.35642-33.353 0.67749-10.57 2.1385-21.342 4.8099-32.049 0.57759-2.3319 1.2173-4.6688 1.9309-6.9999 2.1561-7.0429 4.9549-13.913 8.6419-20.332 4.2124-7.4195 9.9696-14.262 17.453-19.006 3.5927-2.2387 7.5342-3.8791 11.644-4.8253 4.4463-1.0073 8.9504-1.1979 13.294-0.7395 5.483 0.56239 10.854 1.974 15.836 4.2327 4.8288 2.2035 9.1885 5.1575 12.97 8.6107 8.3042 7.653 13.806 17.171 17.563 26.641 4.6143 11.528 7.0308 23.177 8.4128 34.24 1.6435 13.057 1.8601 25.461 1.3519 36.916-0.56212 12.76-2.0502 24.412-4.0705 34.707v0.00001c-1.0438 5.3406-2.224 10.355-3.5596 14.963-1.3356 4.6079-2.8251 8.8102-4.4144 12.573v0.00001c-1.5154 3.5955-3.1812 6.8278-5.0033 9.5424-0.80309 1.2171-1.6701 2.3637-2.5988 3.3666-0.92871 1.0029-1.9186 1.8629-2.9483 2.5535-0.9481 0.63572-1.979 1.0953-3.0117 1.3344-1.0959 0.24817-2.1517 0.20102-3.0671-0.0328-1.2279-0.32701-2.1269-0.91822-2.7928-1.4906h-0.00001c-0.95785-0.8218-1.488-1.5872-1.7956-2.1245-0.30765-0.53722-0.38528-0.85859-0.28193-0.94182 0.10335-0.0832 0.38901 0.0742 0.86934 0.41403 0.48034 0.33979 1.1534 0.87642 2.0958 1.3688h0.00001c0.64873 0.33688 1.4305 0.66199 2.2892 0.7262 0.62697 0.0554 1.3262-0.031 2.0085-0.28908 0.66547-0.24441 1.3377-0.67528 2.0116-1.2357 0.75748-0.62726 1.4733-1.4102 2.1583-2.3403 0.68498-0.93003 1.3386-2.0079 2.0016-3.1843 1.4421-2.6148 2.7295-5.7169 3.9455-9.2463v-0.00001c1.27-3.6961 2.4411-7.8025 3.4732-12.308 1.032-4.5056 1.9234-9.4112 2.7116-14.669v-0.00002c1.5052-10.101 2.5121-21.473 2.6619-33.892 0.13101-11.148-0.40311-23.118-2.2711-35.576-1.5943-10.564-4.0618-21.479-8.4948-31.952-3.6546-8.5538-8.5376-16.893-15.559-23.058-3.1453-2.7924-6.7146-5.1611-10.586-6.8682-3.9838-1.7714-8.3636-2.8652-12.872-3.3003-3.4074-0.31536-6.8512-0.15974-10.107 0.62145-3.0084 0.70645-5.94 1.955-8.6228 3.6422-5.7096 3.5089-10.306 9.2091-14.051 15.607-3.2409 5.6105-5.7253 11.793-7.71 18.283-0.6569 2.1484-1.2558 4.3183-1.8082 6.4989-2.5141 9.9988-3.9135 20.182-4.6176 30.282-0.74902 10.818-0.66327 21.506 0.12991 31.912 0.78799 10.28 2.2472 20.248 4.5356 29.72 2.0699 8.5004 4.6896 16.546 8.4398 23.65 1.5991 3.0282 3.3564 5.8471 5.3846 8.301 1.7883 2.1474 3.7094 4.0258 5.8198 5.3708 4.5439 3.0472 10.357 4.3526 16.203 5.5086 7.9132 1.4838 15.777 2.0625 23.361 2.4673 8.9383 0.4716 17.45 0.59897 25.438 0.74408 8.1838 0.14728 15.859 0.27928 22.901 0.73542 3.2631 0.20562 6.4079 0.03 9.298-0.49844 2.8901-0.52849 5.5267-1.4093 7.8517-2.5758 2.3319-1.1507 4.3652-2.574 6.1205-4.0824 1.7552-1.5084 3.233-3.1029 4.4744-4.6586 1.4312-1.7897 2.5614-3.5298 3.4796-5.1103 0.91821-1.5805 1.6247-3.0026 2.191-4.2011v-0.00001c1.1509-2.9091 1.9004-4.4011 2.1985-4.3146z"/>
    <path id="path3367" fill-rule="evenodd" d="m160.38 419.08c0.55944 0.18939-0.002 3.6142-1.5668 9.8509-0.50283 1.1506-1.1545 2.383-2.026 3.6292-0.87142 1.2462-1.9625 2.5069-3.3633 3.666-1.3 1.0223-2.8317 1.8749-4.5503 2.4659-1.7186 0.59099-3.6246 0.92026-5.6244 0.88775h-0.00001c-3.2377-0.0192-6.7643 0.11209-10.596 0.26546-3.8322 0.15337-7.9702 0.33084-12.434 0.24109-3.754-0.0677-7.8007-0.30207-12.066-1.1677-3.2292-0.58906-6.8519-1.762-10.218-4.3509-1.7441-1.4442-3.1219-3.1053-4.1972-4.784-1.3234-2.0238-2.3976-4.1529-3.2973-6.2914-2.1784-5.1621-3.6696-10.682-4.7825-16.283-2.5465-12.688-3.5043-26.509-2.8444-40.782 0.29898-6.6307 0.97391-13.43 2.2586-20.287 0.49409-2.6703 1.0901-5.3758 1.8366-8.0866 0.87369-3.1725 1.9433-6.3114 3.2698-9.3697 1.8736-4.5105 4.6729-9.0939 8.9089-12.712 1.857-1.5496 4.0618-2.7869 6.5298-3.5582 2.5589-0.75808 5.1682-0.92139 7.652-0.57123h0.00002c3.0937 0.42703 6.0394 1.4806 8.661 3.0588 2.7019 1.6514 4.957 3.7161 6.7891 5.9613 4.3989 5.4396 6.9241 11.554 8.5895 17.344 2.212 7.4813 3.2845 14.821 3.868 21.743 0.70839 8.2927 0.71548 16.113 0.36984 23.323-0.38409 8.0626-1.2245 15.411-2.3272 21.892-0.57023 3.3667-1.208 6.527-1.925 9.4327-0.71704 2.9058-1.5123 5.5573-2.3553 7.9287v0.00001c-0.79812 2.2528-1.6787 4.2986-2.6452 6.0335-0.79649 1.4795-1.7983 2.8643-2.9508 3.8284-0.48375 0.41499-1.0798 0.75105-1.7174 0.94528-0.65571 0.19106-1.3055 0.14818-1.8616-0.0403-0.74483-0.28533-1.19-0.71629-1.4846-1.1062-0.46237-0.59948-0.65244-1.1043-0.73705-1.4588-0.0846-0.3545-0.0551-0.5651 0.0564-0.63296 0.11149-0.0679 0.30658 0.0105 0.58784 0.19816 0.28126 0.18763 0.64626 0.49513 1.1293 0.76075 0.30725 0.16085 0.64543 0.31792 0.93191 0.28842 0.17916-0.006 0.38382-0.0824 0.55184-0.2016 0.20876-0.12459 0.41651-0.36617 0.67115-0.6716 0.63767-0.78259 1.107-1.9255 1.6648-3.3716 0.59995-1.6488 1.1153-3.5778 1.61-5.7866v-0.00001c0.51723-2.3229 0.99058-4.8994 1.3991-7.725 0.40853-2.8256 0.75125-5.9006 1.053-9.2081 0.57146-6.3337 0.91909-13.464 0.87404-21.265-0.0425-6.9745-0.38474-14.458-1.3529-22.283-0.81759-6.5478-2.0068-13.299-4.1715-19.899-1.7254-5.1204-3.8181-10.128-7.1595-13.922-1.3307-1.5279-2.8012-2.8634-4.4118-3.7765-1.512-0.88002-3.235-1.467-4.9895-1.6803h-0.00001c-1.2109-0.13786-2.429-0.0644-3.4751 0.28495-1.0442 0.30767-2.1026 0.95017-3.1068 1.7688-2.5314 1.9835-4.3575 5.3325-6.0713 9.0637-1.1103 2.5398-2.0145 5.2294-2.7766 8.0278-0.65115 2.3911-1.1921 4.835-1.6702 7.3011-1.2052 6.2981-1.8707 12.645-2.2241 18.926-0.74788 13.59-0.10407 26.637 1.9755 38.599 0.92968 5.2834 2.0787 10.251 3.8071 14.722 0.71344 1.8388 1.4769 3.5408 2.3865 5.0345 0.77231 1.2318 1.5186 2.2873 2.3531 2.9941 1.5356 1.4997 4.0444 2.3073 6.7053 3.0692 3.4934 0.91393 7.1168 1.3025 10.68 1.595 4.1633 0.33503 8.2099 0.4231 12.062 0.55141 3.8516 0.1283 7.5082 0.29476 10.905 0.62422 1.3575 0.14396 2.7014 0.0586 3.9346-0.21433 1.2332-0.27292 2.3564-0.73334 3.3206-1.3377 1.0886-0.62928 2.0222-1.4416 2.8353-2.3058 0.81308-0.86421 1.5055-1.7811 2.1049-2.6691v-0.00001c2.4579-5.6459 4.0886-8.6966 4.648-8.5073z"/>
  </g>
  <metadata>
    <rdf:RDF>
      <cc:Work>
        <dc:format>image/svg+xml</dc:format>
        <dc:type rdf:resource="http://purl.org/dc/dcmitype/StillImage"/>
        <cc:license rdf:resource="http://creativecommons.org/licenses/publicdomain/"/>
        <dc:publisher>
          <cc:Agent rdf:about="http://openclipart.org/">
            <dc:title>Openclipart</dc:title>
          </cc:Agent>
        </dc:publisher>
        <dc:title>silhouetteColtC5</dc:title>
        <dc:date>2013-04-02T12:56:11</dc:date>
        <dc:description>car, clip art, clipart, colt, mitsubishi, silhouette, vechicle, </dc:description>
        <dc:source>http://openclipart.org/detail/176709/silhouettecoltc5-by-koconmus-176709</dc:source>
        <dc:creator>
          <cc:Agent>
            <dc:title>koconmus</dc:title>
          </cc:Agent>
        </dc:creator>
        <dc:subject>
          <rdf:Bag>
            <rdf:li>car</rdf:li>
            <rdf:li>clip art</rdf:li>
            <rdf:li>clipart</rdf:li>
            <rdf:li>colt</rdf:li>
            <rdf:li>mitsubishi</rdf:li>
            <rdf:li>silhouette</rdf:li>
            <rdf:li>vechicle</rdf:li>
          </rdf:Bag>
        </dc:subject>
      </cc:Work>
      <cc:License rdf:about="http://creativecommons.org/licenses/publicdomain/">
        <cc:permits rdf:resource="http://creativecommons.org/ns#Reproduction"/>
        <cc:permits rdf:resource="http://creativecommons.org/ns#Distribution"/>
        <cc:permits rdf:resource="http://creativecommons.org/ns#DerivativeWorks"/>
      </cc:License>
    </rdf:RDF>
  </metadata>
</svg>
