<svg id="SedanBack" xmlns="http://www.w3.org/2000/svg" viewBox="0 0 581.48 434.15"><defs><style>.cls-1{fill:none;stroke:#fff;stroke-miterlimit:10;stroke-width:5px;}</style></defs><path class="cls-1" d="M420.94,456.56H590.6c16.27,0,18.71,3.66,21.56,5.69s3.26,13.43,4.07,24.82,5.29,31.32,11,35.79,9.76,5.7,13,5.7h22c7.33,0,23.6-.81,29.29-6.1s11-27.66,12.61-48.82,6.1-94,4.88-118-4.06-68.34-15.45-98.85-14.44-30-18.41-33-17.39-6.41-19.83-11.29-19.22-36.91-31.73-57.05-37.83-45.76-47.29-50.95-76-5.08-76-5.08H341.59s-66.51-.1-76,5.08-34.78,30.82-47.29,51-29.29,52.17-31.73,57.05-15.86,8.24-19.83,11.29-7,2.54-18.41,33-14.23,74.85-15.45,98.85,3.25,96.81,4.88,118,6.91,43.53,12.61,48.82,22,6.1,29.28,6.1h22c3.26,0,7.32-1.22,13-5.7s10.17-24.4,11-35.79,1.22-22.78,4.07-24.82,5.29-5.69,21.56-5.69Z" transform="translate(-130.21 -96.91)"/></svg>