<svg id="SedanSide" xmlns="http://www.w3.org/2000/svg" viewBox="0 0 702.12 231.26"><defs><style>.cls-1{fill:none;stroke:#fff;stroke-miterlimit:10;stroke-width:5px;}</style></defs><path class="cls-1" d="M62.44,332c-.12-14,11.9-37.75,11.9-37.75S85.93,270.46,121,267.41s104.63-2.28,137.9-18.31c23.34-11.25,23.34-11.25,43.32-20.13,40-17.81,53.69-29.6,75.66-34.48s79.63-7,79.63-7,45.45-1.52,75.35,4,95.19,24.71,95.19,24.71l54,17.79c.89.29,20.34,7.78,40.63,7.43,24-.4,26.23,2.44,30.71,5.09S759.56,352,759.56,352s0,3.25-4.88,6.51-31.12,6.91-31.12,6.91-18.42,2.07-28.38,3.5-12.41-5.57-14.33-10.92-6.94-22.43-10.78-28.78c-6.21-10.28-16.8-20.6-23.65-23.65-8.79-3.91-25.37-10.52-42-5.84s-30.75,16.73-30.91,16.88c0,0-12.61,14.64-14.24,26s-2.24,26-2.24,26-1.74,8.85-12,8.85H255.18s-5,.23-5-6.63-1.6-38.42-19.39-54.08-20.95-15.36-38.85-18-40.37,9.15-45.26,14.54-18.91,16.68-18.91,37.32.71,27.06-8.85,28.58c-9.76,1.32-17.83,1.41-31.26-2.52s-17.69-6.42-20.09-10.5C63.26,359,62.69,335.69,62.44,332Z" transform="translate(-59.94 -184.78)"/><circle class="cls-1" cx="127.12" cy="178.12" r="50.64"/><circle class="cls-1" cx="557.93" cy="178.12" r="50.64"/></svg>