<svg id="SedanFront" xmlns="http://www.w3.org/2000/svg" viewBox="0 0 587.34 441.47"><defs><style>.cls-1{fill:none;stroke:#fff;stroke-miterlimit:10;stroke-width:5px;}</style></defs><path class="cls-1" d="M420.94,484.93H612.42c7.47,0,7.77,10.22,7.77,10.22s.92,13.88,3.06,19.07,8.39,9.15,11.44,10.22,17.39.76,17.39.76,34.62,1.22,40.73-2.59,12.81-23.49,12.66-32,1.5-11.21,1.5-11.21l.34-.51a24.59,24.59,0,0,0,4.23-13.54c.29-27.09,1.18-121-.08-155.81-1.49-40.88-27.6-67.12-27.6-67.12s-13.94-8.34-11.9-13.12,9.25-6.71,23.29-8.13,13.83-4.78,13.83-4.78,2.74-6.41,2.34-18-15.77-15.56-15.77-15.56-26.13-1.53-37-.21-5.7,22.48-5.7,22.48,2.95,11.08,0,8.64-22.07-38.13-22.07-38.13-4.57-13.12-30.51-50.65c-.76-1.1-1.52-2.18-2.26-3.21-24.66-34.22-40.75-32.79-40.75-32.79H284.54s-16.09-1.43-40.75,32.79c-.74,1-1.5,2.11-2.26,3.21C215.59,162.46,211,175.58,211,175.58S191.9,211.27,189,213.71s0-8.64,0-8.64,5.19-21.15-5.7-22.48-37,.21-37,.21-15.36,4-15.77,15.56,2.34,18,2.34,18-.2,3.35,13.83,4.78,21.26,3.35,23.29,8.13S158,242.39,158,242.39s-26.11,26.24-27.6,67.12c-1.26,34.82-.37,128.72-.08,155.81a24.59,24.59,0,0,0,4.23,13.54l.34.51s1.66,2.66,1.5,11.21,6.56,28.22,12.66,32,40.73,2.59,40.73,2.59,14.34.31,17.39-.76,9.31-5,11.44-10.22,3.05-19.07,3.05-19.07.31-10.22,7.78-10.22Z" transform="translate(-127.27 -86.42)"/></svg>