<svg xmlns="http://www.w3.org/2000/svg" viewBox="0 0 842.89 596.28"><defs><style>.cls-1{stroke:#ed1f24;}.cls-1,.cls-2{stroke-miterlimit:10;}.cls-2{fill:none;stroke:#fff;stroke-width:5px;}</style></defs><g id="Blackboard"><rect class="cls-1" x="0.5" y="0.5" width="841.89" height="595.28"/></g><g id="SUVFront"><path class="cls-2" d="M420.94,44.78H385.53s-103,2.44-116.39,9.3S212.21,136,205.93,149c-6.14,12.75-21.1,45.75-23,48.4-1.53,2.17-6.1,8.75-5.7-11s2-33.36-5.89-33.76c-8.35-.43-37-1.43-45.36,8.34s-.41,26.44,6.71,30.91,34.78,5.9,32.54,16.88-39.66,45.1-45.56,56.55c-6.91,13.42-14.44,41.28-12.4,86.44S113.39,462,114.61,481s5.08,63.09,15.46,67.95,65.44,4.75,69.56,1.41,14.84-16.89,14.44-27.46,3.66-9.16,6.91-9.36,200,1.11,200,1.11h0s196.71-1.31,200-1.11,7.32-1.22,6.92,9.36,10.22,24,14.44,27.46,59.18,3.45,69.56-1.41,14.23-49,15.45-67.95,5.29-84,7.33-129.15-5.49-73-12.41-86.44c-5.89-11.45-43.32-45.56-45.56-56.55s25.42-12.4,32.54-16.88,15.05-21.15,6.72-30.91-37-8.77-45.36-8.34c-7.93.4-6.31,14-5.9,33.76s-4.16,13.15-5.69,11c-1.88-2.65-16.85-35.65-23-48.4-6.28-13-49.78-88.07-63.2-94.94s-116.39-9.3-116.39-9.3H421" transform="translate(-0.92 0.5)"/></g></svg>