<svg id="SUVBackSide" xmlns="http://www.w3.org/2000/svg" viewBox="0 0 745.15 400.66"><defs><style>.cls-1{fill:none;stroke:#fff;stroke-miterlimit:10;stroke-width:5px;}</style></defs><line class="cls-1" x1="9.27" y1="267.49" x2="20.28" y2="267.49"/><line class="cls-1" x1="222.53" y1="310.31" x2="251.85" y2="310.31"/><path class="cls-1" d="M647.62,465.63c10.9,0,21.81,0,32.71,0,15.58-.05,26.87-11.35,34.15-24.2,6.13-10.84,9.84-23,11.92-35.23" transform="translate(-44.42 -95.98)"/><path class="cls-1" d="M338.08,494.14h39.25c5.38,0,10.45.1,15.47-2.31,8.6-4.12,14.64-12.46,19-20.68,6.84-13,10.38-27.72,12-42.25" transform="translate(-44.42 -95.98)"/><path class="cls-1" d="M86.38,412.14C98,412,109,413,121,411c15-3,16-21,18.79-33.53" transform="translate(-44.42 -95.98)"/><path class="cls-1" d="M533.87,425s20.37-30.06,28.6-31,196.17-16.48,199.22-14.95,14.13,18.62,14.13,18.62" transform="translate(-44.42 -95.98)"/><path class="cls-1" d="M395.11,386.77" transform="translate(-44.42 -95.98)"/><path class="cls-1" d="M420.94,98.59c-40.28,1.7-165.18,13.83-184.3,25.22s-81.76,85-92.33,87.46-69.78,20.95-81.16,39.66c0,0-14.64,45.56-15.76,59.39s-.1,40.07,1.73,47.7,8.29,7,8.29-.31,2-61.47,7.93-70.47,11.46-12.93,22.88-12.05c15.86,1.22,24.84,30.92,25.86,35.39,1.5,6.5,5.26,34.78,5.41,45.61s4.17,14.44,6.2,16.88,31.43,8.2,35.9,9.18,97.77,24.23,103.12,24.07c4.18-.12,16.06,1.23,19.73-18.71s11.8-65,25.83-73.83c14.85-9.36,26.12-7.49,35.59-6.31,12.1,1.51,30.87,21.41,38,35,4.37,8.29,8.09,25.78,11,42.91,2.92,17.35,2.94,32.92,5.7,37.83,5.18,9.26,108.61,3.66,116.34,3.26s252.33-23.11,257.49-27.26,13.42-27.66,12.61-38.64.4-37.83-4.07-46.78-7.07-11.7-7.73-16.14c-.62-4.17-4.37-86.78-8.54-90.44s-14.24-6.76-16.12-8c-1.66-1.08-70.22-72.15-79.78-79.78-8.43-6.73-68.95-17.69-109.53-19.22S429.21,98.25,420.94,98.59Z" transform="translate(-44.42 -95.98)"/><path class="cls-1" d="M691.67,410.58c-3.49,17-10.06,36.06-24,47.36-7,5.7-16.29,9-25.35,7.23s-16.48-8.24-22-15.38c-7.1-9.17-11.77-20-14.84-31.16" transform="translate(-44.42 -95.98)"/><ellipse class="cls-1" cx="41.95" cy="256.39" rx="21.68" ry="59.77"/><line class="cls-1" x1="41.95" y1="196.61" x2="63.63" y2="196.61"/><line class="cls-1" x1="293.66" y1="230.16" x2="328.33" y2="230.16"/><ellipse class="cls-1" cx="293.66" cy="314.16" rx="41.81" ry="84"/></svg>