<svg xmlns="http://www.w3.org/2000/svg" viewBox="0 0 842.89 596.28"><defs><style>.cls-1{stroke:#ed1f24;}.cls-1,.cls-2{stroke-miterlimit:10;}.cls-2{fill:none;stroke:#fff;stroke-width:5px;}</style></defs><g id="Blackboard"><rect class="cls-1" x="0.5" y="0.5" width="841.89" height="595.28"/></g><g id="SUVBackSide"><line class="cls-2" x1="52.77" y1="363.97" x2="63.77" y2="363.97"/><line class="cls-2" x1="266.03" y1="406.79" x2="295.35" y2="406.79"/><path class="cls-2" d="M647.62,465.63c10.9,0,21.81,0,32.71,0,15.58-.05,26.87-11.35,34.15-24.2,6.13-10.84,9.84-23,11.92-35.23" transform="translate(-0.92 0.5)"/><path class="cls-2" d="M338.08,494.14h39.25c5.38,0,10.45.1,15.47-2.31,8.6-4.12,14.64-12.46,19-20.68,6.84-13,10.38-27.72,12-42.25" transform="translate(-0.92 0.5)"/><path class="cls-2" d="M86.38,412.14C98,412,109,413,121,411c15-3,16-21,18.79-33.53" transform="translate(-0.92 0.5)"/><path class="cls-2" d="M533.87,425s20.37-30.06,28.6-31,196.17-16.48,199.22-14.95,14.13,18.62,14.13,18.62" transform="translate(-0.92 0.5)"/><path class="cls-2" d="M395.11,386.77" transform="translate(-0.92 0.5)"/><path class="cls-2" d="M420.94,98.59c-40.28,1.7-165.18,13.83-184.3,25.22s-81.76,85-92.33,87.46-69.78,20.95-81.16,39.66c0,0-14.64,45.56-15.76,59.39s-.1,40.07,1.73,47.7,8.29,7,8.29-.31,2-61.47,7.93-70.47,11.46-12.93,22.88-12.05c15.86,1.22,24.84,30.92,25.86,35.39,1.5,6.5,5.26,34.78,5.41,45.61s4.17,14.44,6.2,16.88,31.43,8.2,35.9,9.18,97.77,24.23,103.12,24.07c4.18-.12,16.06,1.23,19.73-18.71s11.8-65,25.83-73.83c14.85-9.36,26.12-7.49,35.59-6.31,12.1,1.51,30.87,21.41,38,35,4.37,8.29,8.09,25.78,11,42.91,2.92,17.35,2.94,32.92,5.7,37.83,5.18,9.26,108.61,3.66,116.34,3.26s252.33-23.11,257.49-27.26,13.42-27.66,12.61-38.64.4-37.83-4.07-46.78-7.07-11.7-7.73-16.14c-.62-4.17-4.37-86.78-8.54-90.44s-14.24-6.76-16.12-8c-1.66-1.08-70.22-72.15-79.78-79.78-8.43-6.73-68.95-17.69-109.53-19.22S429.21,98.25,420.94,98.59Z" transform="translate(-0.92 0.5)"/><path class="cls-2" d="M691.67,410.58c-3.49,17-10.06,36.06-24,47.36-7,5.7-16.29,9-25.35,7.23s-16.48-8.24-22-15.38c-7.1-9.17-11.77-20-14.84-31.16" transform="translate(-0.92 0.5)"/><ellipse class="cls-2" cx="85.45" cy="352.87" rx="21.68" ry="59.77"/><line class="cls-2" x1="85.45" y1="293.09" x2="107.13" y2="293.09"/><line class="cls-2" x1="337.16" y1="326.65" x2="371.83" y2="326.65"/><ellipse class="cls-2" cx="337.16" cy="410.64" rx="41.81" ry="84"/></g></svg>