<svg xmlns="http://www.w3.org/2000/svg" viewBox="0 0 842.89 596.28"><defs><style>.cls-1{stroke:#ed1f24;}.cls-1,.cls-2{stroke-miterlimit:10;}.cls-2{fill:none;stroke:#fff;stroke-width:5px;}</style></defs><g id="Blackboard"><rect class="cls-1" x="0.5" y="0.5" width="841.89" height="595.28"/></g><g id="SUVFrontSide"><path class="cls-2" d="M380,303.41c-7.32,2.13-72.91-.92-81.76-3.36s33.42-15.77,62.78-22.1c29.81-6.42,59.76-12.83,62.61-8.63C426.18,273,387.36,301.27,380,303.41Z" transform="translate(-0.92 0.5)"/><line class="cls-2" x1="782.56" y1="328.72" x2="771.36" y2="328.72"/><line class="cls-2" x1="551.66" y1="405.17" x2="532.68" y2="405.17"/><path class="cls-2" d="M61.07,266.64c5.34,16.94,12.05,24.26,5.34,22.73S55.3,283.9,54.14,281.6C55.88,275.59,58.16,270.48,61.07,266.64Z" transform="translate(-0.92 0.5)"/><path class="cls-2" d="M270,440.58c-12-.61-32.63-2-56.35-3.9-51-4-116.54-10-142.24-14,35-36.92,30.56-33.26,53.75-31.63S220.78,398,231,398.8,270,440.58,270,440.58Z" transform="translate(-0.92 0.5)"/><path class="cls-2" d="M423.66,269.32c2.52,3.7-36.3,31.95-43.63,34.09s-72.91-.92-81.76-3.36,33.42-15.77,62.78-22.1C390.86,271.53,420.81,265.12,423.66,269.32Z" transform="translate(-0.92 0.5)"/><path class="cls-2" d="M784.64,328.22a3.23,3.23,0,0,1-1.16,0Z" transform="translate(-0.92 0.5)"/><path class="cls-2" d="M182.35,458.29C170,458,157,459,145,458c-16-2-26-16-32.42-29.53" transform="translate(-0.92 0.5)"/><path class="cls-2" d="M491.79,486.8h-24.1c-7.59,0-15.46.58-23-.25-13.59-1.51-22.32-13.91-27.84-25.27a108.12,108.12,0,0,1-8.06-23.55" transform="translate(-0.92 0.5)"/><path class="cls-2" d="M750.6,403.8c-11.63-.14-22.63.86-34.63-1.14-15-3-17.05-26-19.84-38.52" transform="translate(-0.92 0.5)"/><path class="cls-2" d="M147.72,431.92c10.11,19.76,33.13,35.59,53.57,19.24a57.5,57.5,0,0,0,12.54-14.72" transform="translate(-0.92 0.5)"/><ellipse class="cls-2" cx="749.67" cy="344.53" rx="21.68" ry="59.77"/><line class="cls-2" x1="749.67" y1="284.75" x2="728" y2="284.75"/><path class="cls-2" d="M491.79,318.81H462.47" transform="translate(-0.92 0.5)"/><path class="cls-2" d="M790.88,255.2c-.92-7.24-10.1-63.75-14.24-68.54s-11.59-4.23-16.88-8.34c-3.86-3-38.23-53.9-46-57.76S633.46,99.2,609.05,98,437,100.42,420.94,102.51c-14.53,1.89-61.13,9.64-76.3,19.07-11.28,7-97.55,76.19-106.17,80.23-5.19,2.44-153.45,33.26-177.4,64.83,5.34,16.94,12.05,24.26,5.34,22.73S55.3,283.9,54.14,281.6c-12.57,43.37,2.7,134,6.32,138.5.55.7,4.5,1.59,11,2.6,35-36.92,30.56-33.26,53.75-31.63S220.78,398,231,398.8,270,440.58,270,440.58c4.11.21,7.22.32,9.12.32,17.49,0,138.92-3.87,143.8-5.29s13.63-7.12,13.63-21.36c0-10,2.21-35.29,5.5-53.81a81.64,81.64,0,0,1,11.77-29.88c9.25-14.38,20.65-27.89,37.94-30.61,12.92-2,29,2.22,39.57,22.17,13.84,26.2,15.25,64.87,15.25,72.61,0,13.63,9.56,10,16.07,8.07,5.45-1.65,99.81-29.07,133.45-38.66,6.53-1.86,10.77-3.05,11.63-3.25,5.29-1.22,8.48-5.62,8.48-11.92,0,0,3-50.63,11.59-64.72,5.9-9.72,20.48-20.07,31.12-18.27,12,2,16.27,14.65,18.3,27.26,2,12.45,1.83,33.35,5.5,34.78a3.31,3.31,0,0,0,.73.2h1.16c2.68-.44,5.37-4,6.83-10.37C793.24,310.1,792,263.8,790.88,255.2ZM380,303.41c-7.32,2.13-72.91-.92-81.76-3.36s33.42-15.77,62.78-22.1c29.81-6.42,59.76-12.83,62.61-8.63C426.18,273,387.36,301.27,380,303.41Z" transform="translate(-0.92 0.5)"/><path class="cls-2" d="M533.6,402.8c0,46.39-18.72,84-41.81,84S450,449.19,450,402.8s18.72-84,41.81-84S533.6,356.41,533.6,402.8Z" transform="translate(-0.92 0.5)"/></g></svg>